<svg width="36" height="36" viewBox="0 0 36 36" fill="none" xmlns="http://www.w3.org/2000/svg">
<path d="M19.5 21.75C20.95 21.75 22.1875 21.2375 23.2125 20.2125C24.2375 19.1875 24.75 17.95 24.75 16.5C24.75 15.05 24.2375 13.8125 23.2125 12.7875C22.1875 11.7625 20.95 11.25 19.5 11.25C18.05 11.25 16.8125 11.7625 15.7875 12.7875C14.7625 13.8125 14.25 15.05 14.25 16.5C14.25 17.95 14.7625 19.1875 15.7875 20.2125C16.8125 21.2375 18.05 21.75 19.5 21.75ZM19.5 24C17.425 24 15.6562 23.2688 14.1937 21.8063C12.7312 20.3438 12 18.575 12 16.5C12 14.425 12.7312 12.6562 14.1937 11.1937C15.6562 9.73125 17.425 9 19.5 9C21.575 9 23.3438 9.73125 24.8063 11.1937C26.2688 12.6562 27 14.425 27 16.5C27 18.575 26.2688 20.3438 24.8063 21.8063C23.3438 23.2688 21.575 24 19.5 24ZM4.125 17.625C3.8 17.625 3.53125 17.5188 3.31875 17.3063C3.10625 17.0938 3 16.825 3 16.5C3 16.175 3.10625 15.9062 3.31875 15.6937C3.53125 15.4812 3.8 15.375 4.125 15.375H7.875C8.2 15.375 8.46875 15.4812 8.68125 15.6937C8.89375 15.9062 9 16.175 9 16.5C9 16.825 8.89375 17.0938 8.68125 17.3063C8.46875 17.5188 8.2 17.625 7.875 17.625H4.125ZM31.125 17.625C30.8 17.625 30.5312 17.5188 30.3187 17.3063C30.1062 17.0938 30 16.825 30 16.5C30 16.175 30.1062 15.9062 30.3187 15.6937C30.5312 15.4812 30.8 15.375 31.125 15.375H34.875C35.2 15.375 35.4688 15.4812 35.6813 15.6937C35.8938 15.9062 36 16.175 36 16.5C36 16.825 35.8938 17.0938 35.6813 17.3063C35.4688 17.5188 35.2 17.625 34.875 17.625H31.125ZM19.5 6C19.175 6 18.9062 5.89375 18.6937 5.68125C18.4812 5.46875 18.375 5.2 18.375 4.875V1.125C18.375 0.8 18.4812 0.53125 18.6937 0.31875C18.9062 0.10625 19.175 0 19.5 0C19.825 0 20.0938 0.10625 20.3063 0.31875C20.5188 0.53125 20.625 0.8 20.625 1.125V4.875C20.625 5.2 20.5188 5.46875 20.3063 5.68125C20.0938 5.89375 19.825 6 19.5 6ZM19.5 33C19.175 33 18.9062 32.8938 18.6937 32.6813C18.4812 32.4688 18.375 32.2 18.375 31.875V28.125C18.375 27.8 18.4812 27.5312 18.6937 27.3187C18.9062 27.1062 19.175 27 19.5 27C19.825 27 20.0938 27.1062 20.3063 27.3187C20.5188 27.5312 20.625 27.8 20.625 28.125V31.875C20.625 32.2 20.5188 32.4688 20.3063 32.6813C20.0938 32.8938 19.825 33 19.5 33ZM10.5 9.075L8.3625 6.975C8.1375 6.75 8.03125 6.48125 8.04375 6.16875C8.05625 5.85625 8.1625 5.5875 8.3625 5.3625C8.5875 5.1375 8.85625 5.025 9.16875 5.025C9.48125 5.025 9.75 5.1375 9.975 5.3625L12.075 7.5C12.275 7.725 12.375 7.9875 12.375 8.2875C12.375 8.5875 12.275 8.8375 12.075 9.0375C11.875 9.2625 11.6187 9.375 11.3062 9.375C10.9937 9.375 10.725 9.275 10.5 9.075ZM29.025 27.6375L26.925 25.5C26.725 25.275 26.625 25.0062 26.625 24.6937C26.625 24.3812 26.7375 24.125 26.9625 23.925C27.1625 23.7 27.4125 23.5875 27.7125 23.5875C28.0125 23.5875 28.275 23.7 28.5 23.925L30.6375 26.025C30.8625 26.25 30.9688 26.5188 30.9563 26.8313C30.9438 27.1438 30.8375 27.4125 30.6375 27.6375C30.4125 27.8625 30.1438 27.975 29.8313 27.975C29.5188 27.975 29.25 27.8625 29.025 27.6375V27.6375ZM26.925 9.075C26.7 8.85 26.5875 8.5875 26.5875 8.2875C26.5875 7.9875 26.7 7.725 26.925 7.5L29.025 5.3625C29.25 5.1375 29.5188 5.03125 29.8313 5.04375C30.1438 5.05625 30.4125 5.1625 30.6375 5.3625C30.8625 5.5875 30.975 5.85625 30.975 6.16875C30.975 6.48125 30.8625 6.75 30.6375 6.975L28.5 9.075C28.3 9.275 28.0437 9.375 27.7312 9.375C27.4187 9.375 27.15 9.275 26.925 9.075ZM8.3625 27.6375C8.1375 27.4125 8.025 27.1438 8.025 26.8313C8.025 26.5188 8.1375 26.25 8.3625 26.025L10.5 23.925C10.725 23.7 10.9875 23.5875 11.2875 23.5875C11.5875 23.5875 11.85 23.7 12.075 23.925C12.3 24.15 12.4125 24.4125 12.4125 24.7125C12.4125 25.0125 12.3 25.275 12.075 25.5L9.975 27.6375C9.75 27.8625 9.48125 27.9688 9.16875 27.9563C8.85625 27.9438 8.5875 27.8375 8.3625 27.6375V27.6375Z" fill="white"/>
</svg>
